<svg width="24" height="24" viewBox="0 0 24 24" fill="none" xmlns="http://www.w3.org/2000/svg">
  <path d="M12 12.5C10.8954 12.5 10 11.6046 10 10.5C10 9.39543 10.8954 8.5 12 8.5C13.1046 8.5 14 9.39543 14 10.5C14 11.6046 13.1046 12.5 12 12.5Z" fill="#4A6741"/>
  <path d="M7 19C4.79086 19 3 17.2091 3 15C3 13.9777 3.39479 13.0301 4.03258 12.3096C4.09309 12.2388 4.21252 12.2473 4.26066 12.3262C4.48013 12.7136 4.9493 13.4148 6.0787 13.8727C6.55696 14.0785 7.02321 14.0966 7.41912 14.0386C7.72516 13.9963 7.95034 13.7008 7.92166 13.3929C7.86535 12.8011 7.96251 11.7512 9.39693 10.7752C9.94162 10.3922 10.3924 10.2146 10.7363 10.118C10.9559 10.0531 11.0001 9.76536 10.8124 9.63042C10.0861 9.1151 9.83527 8.54877 9.84759 8.09182C9.85801 7.71519 10.0756 7.32542 10.7363 6.88178C10.9291 6.75288 11.0706 6.66021 11.1766 6.59116C11.2389 6.54894 11.32 6.55884 11.3695 6.61354C11.7948 7.09165 12.8075 8.25 14.5 8.25C16.1925 8.25 17.1577 7.11996 17.5653 6.62768C17.6117 6.57113 17.6925 6.5571 17.7576 6.59627C17.9222 6.69602 18.0948 6.83664 18.2776 6.9725C19.081 7.55326 19.5 8.32552 19.5 9.25C19.5 10.5855 18.5435 11.6551 18.0213 12.1519C17.9596 12.2113 17.9624 12.3085 18.0272 12.3643C18.4635 12.741 19 13.4228 19 14.5C19 16.7091 17.2091 18.5 15 18.5H10" stroke="#4A6741" stroke-width="2" stroke-linecap="round" stroke-linejoin="round"/>
  <path d="M16.5 18.5C16.5 17 15.5 15 14 15C12.5 15 11.5 16.8 11.5 18.5" stroke="#8B5A2B" stroke-width="2" stroke-linecap="round" stroke-linejoin="round"/>
  <path d="M9.5 18.5C9.5 17 8.5 15 7 15C5.5 15 4.5 16.8 4.5 18.5" stroke="#8B5A2B" stroke-width="2" stroke-linecap="round" stroke-linejoin="round"/>
</svg>